<svg version="1" xmlns="http://www.w3.org/2000/svg" width="1324" height="1324" viewBox="0 0 993.000000 993.000000"><path d="M449 139.5C251.8 207.4 87.6 264 84.1 265.2c-7.3 2.6-10.3 5.8-10.3 10.9.1 3.6 34.3 103.8 36.8 107.6 1.3 2 1.5 34 1.7 245.5.2 224.3.3 243.5 1.9 246.3 2.2 4.1 5.6 7.1 10 9 3.4 1.3 42.9 1.5 382.5 1.5 366.1 0 378.9-.1 382.8-1.9 4.7-2.1 7.9-5.4 9.5-9.6 1.7-4.1 1.4-489.9-.2-492.5-3-4.8 19.7-4.5-375.5-5l-370.2-.5 348.2-119.8c222.5-76.6 349-120.6 350.4-121.9 1.2-1.1 2.5-3.3 2.8-4.8.4-1.9-4.3-16.8-17.4-54.9-9.9-28.8-18.7-53.4-19.6-54.7-1.6-2.5-5.3-4.4-8.3-4.3-.9 0-163 55.6-360.2 123.4zm250.2-19.8c7.5 21.9 13.8 40.4 14 41.1.4 1.9-140.4 50.5-141.3 48.8-2.1-3.7-28-81.1-27.3-81.3 5-2 139.2-48.2 140-48.2.5-.1 7.1 17.8 14.6 39.6zm-281.8 97.7c7.7 22.3 13.9 40.8 13.7 41.3-.1.4-31.8 11.7-70.4 25-48.3 16.6-70.4 23.8-70.9 23-1.2-2.2-28-80.8-27.7-81.2.6-.5 139.2-48.3 140.4-48.4.6-.1 7.3 18.1 14.9 40.3zm-282 97c7.7 22.3 13.9 40.8 13.8 41.2-.1.9-20.9 8.4-23.2 8.4-1.1 0-5.2-10.8-15-39.2-7.4-21.5-13.6-39.9-13.8-40.8-.2-1.3 2.3-2.6 11-5.8 6.2-2.2 11.8-4.1 12.3-4.1.6-.1 7.3 18.1 14.9 40.3zM326 441.5V485H176v-87h150v43.5zm298 0V485H474v-87h150v43.5zm256 0V485H772v-87h108v43.5zm-414.3 92.2c1.5 2.2 1.9 5.4 2.1 17.1.5 17.6-.3 24.1-3.1 28.4-2.6 3.9 2.1 1.5-122.9 62.7-51.1 25-92.8 45.7-92.8 46.1 0 .4 3.5 2.3 7.8 4.3 18.1 8.3 200 96.9 203.2 98.9 6.5 4.3 7.5 7.4 7.9 25.1.2 8.7 0 17.8-.4 20.3-.8 5.8-3.5 8.7-7.2 7.7-5.2-1.3-261.8-131.4-264-133.9-3.4-3.8-4.7-9.8-4.7-23.4-.1-13.2 1.4-19.9 5.2-23.4 1-.8 41.2-21.4 89.2-45.7 48.1-24.2 106.6-53.7 129.9-65.5 25.9-13.1 43.4-21.4 45.2-21.4 2 0 3.4.8 4.6 2.7zM674 597.3l131.5 66.2 2.5 5c2.3 4.6 2.5 6.1 2.5 18.5 0 13.9-1.1 20.2-4.3 23.8-2.8 3.3-261.3 133.2-265 133.2-2.3 0-3.6-.7-4.9-2.7-1.6-2.4-1.8-5.2-1.8-21.8 0-17.2.2-19.3 2-22.5 2.4-4.2-1-2.4 128.4-66l89.4-44-12.4-5.9C707.7 664.9 548.8 588 544 585.4c-9-4.8-9.5-6.4-9.5-29.4 0-17.1.2-19.9 1.8-22.3 1-1.6 2.6-2.7 4-2.7 1.2 0 61.4 29.8 133.7 66.3z"/></svg>